<svg width="6" height="10" viewBox="0 0 6 10" fill="none" xmlns="http://www.w3.org/2000/svg">
<g clip-path="url(#clip0_100_4208)">
<path d="M5.38661 6.98498C5.42148 7.01981 5.44914 7.06117 5.46801 7.10669C5.48688 7.15222 5.4966 7.20101 5.4966 7.25029C5.4966 7.29958 5.48688 7.34837 5.46801 7.3939C5.44914 7.43942 5.42148 7.48078 5.38661 7.51561L3.13661 9.76561C3.10179 9.80047 3.06043 9.82813 3.0149 9.847C2.96938 9.86588 2.92058 9.87559 2.8713 9.87559C2.82202 9.87559 2.77322 9.86588 2.7277 9.847C2.68218 9.82813 2.64082 9.80047 2.60599 9.76561L0.35599 7.51561C0.285624 7.44524 0.246094 7.34981 0.246094 7.25029C0.246094 7.15078 0.285624 7.05535 0.35599 6.98498C0.426355 6.91462 0.521791 6.87509 0.621302 6.87509C0.720814 6.87509 0.81625 6.91462 0.886615 6.98498L2.8713 8.97014L4.85599 6.98498C4.89082 6.95012 4.93218 6.92246 4.9777 6.90358C5.02322 6.88471 5.07202 6.875 5.1213 6.875C5.17058 6.875 5.21938 6.88471 5.2649 6.90358C5.31043 6.92246 5.35179 6.95012 5.38661 6.98498ZM0.886615 3.01561L2.8713 1.03045L4.85599 3.01561C4.92635 3.08597 5.02179 3.1255 5.1213 3.1255C5.22081 3.1255 5.31625 3.08597 5.38661 3.01561C5.45698 2.94524 5.49651 2.84981 5.49651 2.7503C5.49651 2.65078 5.45698 2.55535 5.38661 2.48498L3.13661 0.234982C3.10179 0.200116 3.06043 0.172457 3.0149 0.153585C2.96938 0.134713 2.92058 0.125 2.8713 0.125C2.82202 0.125 2.77322 0.134713 2.7277 0.153585C2.68218 0.172457 2.64082 0.200116 2.60599 0.234982L0.35599 2.48498C0.285624 2.55535 0.246094 2.65078 0.246094 2.7503C0.246094 2.84981 0.285625 2.94524 0.35599 3.01561C0.426355 3.08597 0.521791 3.1255 0.621302 3.1255C0.720814 3.1255 0.81625 3.08597 0.886615 3.01561Z" fill="#A0A0A0"/>
</g>
<defs>
<clipPath id="clip0_100_4208">
<rect width="5.2505" height="9.75059" fill="white" transform="translate(0.246094 0.125)"/>
</clipPath>
</defs>
</svg>
