<svg width="32" height="24" viewBox="0 0 32 24" fill="none" xmlns="http://www.w3.org/2000/svg">
<g clip-path="url(#clip0_100_4206)">
<path fill-rule="evenodd" clip-rule="evenodd" d="M15.3323 20.9172C15.178 20.8941 15.0395 20.8329 14.9166 20.7335C14.4478 21.2163 13.986 21.2163 13.5312 20.7335C13.5144 20.483 13.4682 20.238 13.3926 19.9985C13.1155 19.876 12.8385 19.7534 12.5614 19.631C12.5072 19.6502 12.4611 19.6809 12.4228 19.7228C12.3412 20.1663 12.3874 20.5951 12.5614 21.0091C13.1833 21.1723 13.799 21.3407 14.4086 21.5144C13.7311 21.4989 13.0537 21.4223 12.3766 21.2847C12.0986 20.7255 12.0371 20.1436 12.1919 19.5391C11.9084 19.527 11.6313 19.5576 11.3607 19.631C11.3744 19.7276 11.3591 19.8195 11.3145 19.9066C10.7603 19.3553 10.2061 18.8041 9.65193 18.2529C9.50406 18.9782 9.4733 19.7132 9.55957 20.4578C9.94131 20.9295 10.3569 21.3736 10.8065 21.79C11.126 21.8693 11.4339 21.9765 11.7301 22.1116C11.8453 22.2791 11.9069 22.4628 11.9148 22.6628C9.63623 22.4739 7.35801 22.2748 5.07997 22.0656C4.95685 21.9738 4.95685 21.8819 5.07997 21.79C5.93026 21.2969 6.79228 20.8222 7.66613 20.366C7.77798 20.2949 7.77798 20.2183 7.66613 20.1363C6.86756 19.6931 6.03629 19.3256 5.17233 19.0338C3.70533 18.6576 2.24294 18.2747 0.785086 17.8854C0.743984 17.693 0.820922 17.5552 1.01599 17.4719C2.99238 16.2855 5.11673 15.4586 7.38904 14.9913C7.47475 14.9557 7.53636 14.8944 7.57377 14.8076C6.95152 13.4182 6.05874 12.2238 4.89524 11.2245C4.06397 10.5814 3.23271 9.93826 2.40144 9.29514C1.61173 8.85645 0.811317 8.44301 0 8.05484C1.86795 6.74307 3.89994 5.7478 6.09596 5.06894C7.34905 4.64136 8.51901 4.79451 9.60575 5.52831C10.7496 6.28287 11.8272 7.12508 12.8385 8.05484C12.9888 6.7291 12.9426 5.41227 12.6999 4.10426C12.3094 3.12286 11.9554 2.12759 11.6377 1.11836C11.6482 1.00076 11.7098 0.924227 11.8225 0.888672C13.5837 1.15097 15.2155 1.74815 16.7177 2.68022C17.1611 3.02924 17.5768 3.41208 17.9646 3.82864C18.3083 4.26734 18.5546 4.75739 18.7035 5.29862C18.9732 6.73241 19.2041 8.1718 19.3962 9.6167C21.3506 10.0909 22.6129 11.2852 23.1831 13.1998C23.3833 13.2304 23.5833 13.2611 23.7835 13.2917C25.5858 13.1258 27.3869 12.988 29.1867 12.8782C29.2745 12.9442 29.2899 13.0207 29.2329 13.1079C28.4171 13.8583 27.6011 14.6085 26.7853 15.3588C28.3198 15.4904 29.8591 15.5669 31.4034 15.5885C31.4191 15.71 31.3884 15.8172 31.3111 15.9101C29.0794 17.1271 26.8627 18.3674 24.6609 19.631C25.6655 19.9497 26.6815 20.2253 27.7089 20.4578C27.7246 20.5793 27.6938 20.6865 27.6165 20.7794C26.0156 21.2388 24.4146 21.6981 22.8137 22.1575C23.3904 22.4813 23.9753 22.7875 24.5686 23.0762C23.0898 23.1346 21.612 23.1192 20.1351 23.0303C20.1652 22.7721 20.2422 22.527 20.366 22.2953C20.9082 21.9949 21.4008 21.6274 21.8439 21.1928C22.2767 20.3553 22.4614 19.4672 22.398 18.5285C21.8708 18.9921 21.3475 19.4514 20.8279 19.9066C20.7176 19.7205 20.579 19.6899 20.4122 19.8147C20.347 20.3193 20.2238 20.8093 20.0428 21.2847C19.3658 21.4223 18.6884 21.4989 18.0108 21.5144C18.5838 21.3388 19.1687 21.1857 19.7657 21.055C20.0392 20.6747 20.1007 20.2612 19.9504 19.8147C19.6689 19.8924 19.3918 19.9843 19.1191 20.0903C18.8929 20.9072 18.4002 21.1216 17.6413 20.7335C17.429 20.8377 17.2288 20.9602 17.041 21.101C16.9794 21.0397 16.9794 20.9785 17.041 20.9172C17.3026 20.7181 17.5644 20.5191 17.8261 20.32C17.7744 20.2534 17.7437 20.1769 17.7337 20.0903C18.0814 18.5465 18.1892 16.9846 18.057 15.4048C16.375 16.5722 15.0358 18.0422 14.0392 19.8147C14.4992 20.1499 14.9302 20.5174 15.3323 20.9172ZM13.5774 16.1398C13.582 17.2595 13.582 18.3927 13.5774 19.5391C13.1856 19.2293 12.7699 18.9537 12.3305 18.7122C12.2264 18.1376 12.288 17.5863 12.5152 17.0585C12.8325 16.6961 13.1865 16.3898 13.5774 16.1398ZM18.1955 19.9985C19.0304 18.8136 19.8155 17.5886 20.5508 16.3235C20.6311 16.3794 20.6773 16.4559 20.6893 16.5532C20.5774 17.3368 20.4543 18.1177 20.3199 18.896C19.6213 19.2893 18.9133 19.6568 18.1955 19.9985ZM11.3607 19.631C11.2624 19.3087 11.2162 18.9719 11.2221 18.6204C11.3607 18.7582 11.4992 18.896 11.6377 19.0338C11.5071 19.2169 11.4148 19.416 11.3607 19.631Z" fill="#F2F2F2"/>
<path fill-rule="evenodd" clip-rule="evenodd" d="M15.3323 20.9172C15.4554 20.9785 15.4554 20.9785 15.3323 20.9172V20.9172Z" fill="#F2F2F2"/>
<path fill-rule="evenodd" clip-rule="evenodd" d="M12.9308 22.0197C13.57 22.1342 14.3396 22.226 15.2399 22.2953C15.2399 22.3872 15.2399 22.4791 15.2399 22.5709C14.4936 22.481 13.7547 22.3585 13.0232 22.2034C12.7441 22.309 12.467 22.309 12.1919 22.2034C12.4511 22.1421 12.6973 22.0809 12.9308 22.0197Z" fill="#F2F2F2"/>
<path fill-rule="evenodd" clip-rule="evenodd" d="M18.9344 22.0197C19.2379 22.0847 19.5458 22.1152 19.858 22.1116C19.858 22.2034 19.858 22.2953 19.858 22.3872C19.5634 22.3818 19.2709 22.3511 18.9806 22.2953C18.4406 22.4306 17.9018 22.4917 17.3642 22.4791C17.1179 22.4178 17.1179 22.3566 17.3642 22.2953C17.8976 22.1851 18.4211 22.0932 18.9344 22.0197Z" fill="#F2F2F2"/>
</g>
<defs>
<clipPath id="clip0_100_4206">
<rect width="31.4074" height="22.2222" fill="white" transform="translate(0 0.888672)"/>
</clipPath>
</defs>
</svg>
