<svg width="6" height="10" viewBox="0 0 6 10" fill="none" xmlns="http://www.w3.org/2000/svg">
<g clip-path="url(#clip0_100_4209)">
<path d="M5.89052 6.98498C5.92539 7.01981 5.95305 7.06117 5.97192 7.10669C5.99079 7.15222 6.0005 7.20101 6.0005 7.25029C6.0005 7.29958 5.99079 7.34837 5.97192 7.3939C5.95305 7.43942 5.92539 7.48078 5.89052 7.51561L3.64052 9.76561C3.60569 9.80047 3.56434 9.82813 3.51881 9.847C3.47329 9.86588 3.42449 9.87559 3.37521 9.87559C3.32593 9.87559 3.27713 9.86588 3.23161 9.847C3.18608 9.82813 3.14472 9.80047 3.1099 9.76561L0.859896 7.51561C0.789531 7.44524 0.75 7.34981 0.75 7.25029C0.75 7.15078 0.789531 7.05535 0.859896 6.98498C0.930261 6.91462 1.0257 6.87509 1.12521 6.87509C1.22472 6.87509 1.32016 6.91462 1.39052 6.98498L3.37521 8.97014L5.3599 6.98498C5.39472 6.95012 5.43608 6.92246 5.48161 6.90358C5.52713 6.88471 5.57593 6.875 5.62521 6.875C5.67449 6.875 5.72329 6.88471 5.76881 6.90358C5.81434 6.92246 5.85569 6.95012 5.89052 6.98498ZM1.39052 3.01561L3.37521 1.03045L5.3599 3.01561C5.43026 3.08597 5.5257 3.1255 5.62521 3.1255C5.72472 3.1255 5.82016 3.08597 5.89052 3.01561C5.96089 2.94524 6.00042 2.84981 6.00042 2.7503C6.00042 2.65078 5.96089 2.55535 5.89052 2.48498L3.64052 0.234982C3.60569 0.200116 3.56434 0.172457 3.51881 0.153585C3.47329 0.134713 3.42449 0.125 3.37521 0.125C3.32593 0.125 3.27713 0.134713 3.23161 0.153585C3.18608 0.172457 3.14472 0.200116 3.1099 0.234982L0.859896 2.48498C0.789531 2.55535 0.75 2.65078 0.75 2.7503C0.75 2.84981 0.789531 2.94524 0.859896 3.01561C0.930261 3.08597 1.0257 3.1255 1.12521 3.1255C1.22472 3.1255 1.32016 3.08597 1.39052 3.01561Z" fill="#A0A0A0"/>
</g>
<defs>
<clipPath id="clip0_100_4209">
<rect width="5.2505" height="9.75059" fill="white" transform="translate(0.75 0.125)"/>
</clipPath>
</defs>
</svg>
